<svg width="48" height="47" viewBox="0 0 48 47" fill="none" xmlns="http://www.w3.org/2000/svg">
<g clip-path="url(#clip0_1_2)">
<mask id="mask0_1_2" style="mask-type:luminance" maskUnits="userSpaceOnUse" x="0" y="-1" width="48" height="48">
<path d="M48 -1H0V47H48V-1Z" fill="white"/>
</mask>
<g mask="url(#mask0_1_2)">
<path d="M0 14.5792C0 8.35769 3.83632 2.74813 9.87831 1.26425C19.9862 -1.2182 35.2427 -3.26324 42.753 4.24707C49.0925 10.5867 48.6236 22.4456 46.8302 32.0683C45.1204 41.2426 36.587 47 27.2548 47H7.5C3.35787 47 0 43.6421 0 39.5V14.5792Z" fill="#FE705A"/>
</g>
<path d="M23.2283 32.8703L22.9643 33.6843C22.5829 33.7137 22.2969 33.7283 22.1063 33.7283C21.2263 33.7283 20.5076 33.3543 19.9503 32.6063C19.4076 31.873 19.1363 30.9123 19.1363 29.7243C19.1363 29.0057 19.2976 27.649 19.6203 25.6543C19.9576 23.645 20.3463 21.8117 20.7863 20.1543C20.8743 19.7877 20.9183 19.5457 20.9183 19.4283C20.9183 19.311 20.8669 19.2523 20.7643 19.2523C20.6616 19.2523 20.3316 19.8023 19.7743 20.9023C19.2316 21.9877 18.5789 23.3297 17.8163 24.9283C17.0536 26.5123 16.6136 27.4217 16.4963 27.6563C16.3936 27.8763 16.3056 28.0597 16.2323 28.2063C16.1736 28.3383 16.0416 28.5877 15.8363 28.9543C15.6456 29.3063 15.4623 29.6217 15.2863 29.9003C14.8023 30.6337 14.4209 31.0003 14.1423 31.0003C13.9516 31.0003 13.7389 30.949 13.5043 30.8463C13.2843 30.7437 13.1376 30.6337 13.0643 30.5163C12.9029 30.267 12.8223 29.4897 12.8223 28.1843C12.8223 25.4563 13.0423 22.853 13.4823 20.3743C13.6289 19.553 13.7023 19.1203 13.7023 19.0763C13.7023 18.9297 13.6436 18.8563 13.5263 18.8563C13.2916 18.8563 12.9176 19.5897 12.4043 21.0563L11.7663 22.8823C10.8276 25.537 9.87427 27.605 8.90627 29.0863C7.95294 30.5677 6.85294 31.609 5.60627 32.2103L5.03427 31.0003C6.45694 29.9443 7.54961 28.8663 8.31227 27.7663C9.08961 26.6663 9.93294 24.8917 10.8423 22.4423L11.5903 20.4403C12.1036 19.047 12.5509 18.057 12.9323 17.4703C13.3136 16.869 13.7389 16.5683 14.2083 16.5683C14.9856 16.5683 15.3743 17.0377 15.3743 17.9763C15.3743 18.0497 15.2349 19.5383 14.9563 22.4423C14.6776 25.3317 14.5383 27.2383 14.5383 28.1623C14.5383 28.4263 14.5823 28.5657 14.6703 28.5803C14.7436 28.5803 14.8243 28.507 14.9123 28.3603C16.1003 26.3803 17.2369 24.2243 18.3223 21.8923C18.4543 21.599 18.6816 21.093 19.0043 20.3743C19.3269 19.6557 19.6423 19.0177 19.9503 18.4603C20.2583 17.903 20.4929 17.5657 20.6543 17.4483C20.8156 17.3163 21.0723 17.2503 21.4243 17.2503C21.7763 17.2503 22.0769 17.3823 22.3263 17.6463C22.5903 17.8957 22.7223 18.1963 22.7223 18.5483C22.7223 18.9003 22.6709 19.3037 22.5683 19.7583C21.4243 25.3463 20.8523 28.6903 20.8523 29.7903C20.8523 30.8757 21.0283 31.6163 21.3803 32.0123C21.7323 32.423 22.3483 32.709 23.2283 32.8703ZM39.4124 24.0483L39.3024 25.3683C38.965 25.339 38.5984 25.3243 38.2024 25.3243C37.821 25.3243 37.4984 25.3317 37.2344 25.3463C37.029 26.9597 36.897 28.7123 36.8384 30.6043H35.2984C35.2104 30.223 35.1664 29.717 35.1664 29.0863C35.1664 28.4557 35.181 27.913 35.2104 27.4583C35.2544 26.989 35.3057 26.527 35.3644 26.0723C35.423 25.6177 35.4524 25.3537 35.4524 25.2803C35.247 25.2657 34.763 25.2583 34.0004 25.2583C33.2377 25.2583 32.7097 25.273 32.4164 25.3023C30.715 27.5903 29.1457 29.3283 27.7084 30.5163C26.271 31.6897 24.8337 32.2763 23.3964 32.2763C22.6924 32.2763 22.1057 32.0637 21.6364 31.6383C21.1524 31.213 20.9104 30.6483 20.9104 29.9443C20.9104 28.6097 21.9224 27.3923 23.9464 26.2923C25.985 25.1923 28.6177 24.4517 31.8444 24.0703C32.2257 23.4837 32.937 22.5817 33.9784 21.3643C35.0197 20.1323 36.0464 19.0617 37.0584 18.1523C37.4984 17.1257 37.843 16.4143 38.0924 16.0183C38.3564 15.6077 38.613 15.4023 38.8624 15.4023C39.1117 15.4023 39.317 15.4977 39.4784 15.6883C39.6397 15.879 39.7204 16.1283 39.7204 16.4363C39.7204 16.7297 39.5517 17.1697 39.2144 17.7563C38.8917 18.3283 38.5544 19.223 38.2024 20.4403C37.8504 21.643 37.6084 22.7797 37.4764 23.8503C38.239 23.8503 38.8844 23.9163 39.4124 24.0483ZM28.1924 28.6463C29.4097 27.4877 30.3264 26.3877 30.9424 25.3463C28.4784 25.493 26.5717 25.955 25.2224 26.7323C23.8877 27.5097 23.2204 28.3383 23.2204 29.2183C23.2204 29.5997 23.345 29.9003 23.5944 30.1203C23.8584 30.3403 24.203 30.4503 24.6284 30.4503C25.7724 30.4503 26.9604 29.849 28.1924 28.6463ZM35.7164 23.8503C35.819 23.3517 35.951 22.7283 36.1124 21.9803C36.2884 21.2177 36.391 20.7703 36.4204 20.6383C35.7164 21.313 35.225 21.8117 34.9464 22.1343C34.6677 22.4423 34.1764 23.0437 33.4724 23.9383C33.7217 23.9237 34.0224 23.9163 34.3744 23.9163C34.741 23.9017 35.0417 23.887 35.2764 23.8723C35.511 23.8577 35.6577 23.8503 35.7164 23.8503Z" fill="white"/>
</g>
<defs>
<clipPath id="clip0_1_2">
<rect width="48" height="47" fill="white"/>
</clipPath>
</defs>
</svg>
